REM DIRINDEX 1\2,1\3,1\4,1\5
REM DIRNAME folder01,folder02,folder03,folder04,folder05
TITLE ""
FILE "P1Q_t_0030-0039.mp3" MP3
  TRACK 01 AUDIO
    TITLE "3:cjc005_0990"
    INDEX 01 00:00:00
  TRACK 02 AUDIO
    TITLE "0:"
    INDEX 01 00:01:11
  TRACK 03 AUDIO
    TITLE "4:cjc005_0991"
    INDEX 01 00:01:34
  TRACK 04 AUDIO
    TITLE "0:"
    INDEX 01 00:02:63
  TRACK 05 AUDIO
    TITLE "5:cjc005_0992"
    INDEX 01 00:03:06
  TRACK 06 AUDIO
    TITLE "0:"
    INDEX 01 00:06:24
  TRACK 07 AUDIO
    TITLE "3:cjc005_0993"
    INDEX 01 00:07:02
  TRACK 08 AUDIO
    TITLE "0:"
    INDEX 01 00:08:21
  TRACK 09 AUDIO
    TITLE "4:cjc005_0994"
    INDEX 01 00:08:42
  TRACK 10 AUDIO
    TITLE "0:"
    INDEX 01 00:09:45
  TRACK 11 AUDIO
    TITLE "5:cjc005_0995"
    INDEX 01 00:09:67
  TRACK 12 AUDIO
    TITLE "0:"
    INDEX 01 00:14:25
  TRACK 13 AUDIO
    TITLE "3:cjc005_0996"
    INDEX 01 00:14:74
  TRACK 14 AUDIO
    TITLE "0:"
    INDEX 01 00:16:08
  TRACK 15 AUDIO
    TITLE "4:cjc005_0997"
    INDEX 01 00:16:32
  TRACK 16 AUDIO
    TITLE "0:"
    INDEX 01 00:17:57
  TRACK 17 AUDIO
    TITLE "5:cjc005_0998"
    INDEX 01 00:18:05
  TRACK 18 AUDIO
    TITLE "0:"
    INDEX 01 00:22:09
  TRACK 19 AUDIO
    TITLE "3:cjc005_0999"
    INDEX 01 00:22:58
  TRACK 20 AUDIO
    TITLE "0:"
    INDEX 01 00:23:71
  TRACK 21 AUDIO
    TITLE "4:cjc005_1000"
    INDEX 01 00:24:24
  TRACK 22 AUDIO
    TITLE "0:"
    INDEX 01 00:25:56
  TRACK 23 AUDIO
    TITLE "5:cjc005_1001"
    INDEX 01 00:26:07
  TRACK 24 AUDIO
    TITLE "0:"
    INDEX 01 00:29:44
  TRACK 25 AUDIO
    TITLE "3:cjc005_1002"
    INDEX 01 00:30:14
  TRACK 26 AUDIO
    TITLE "0:"
    INDEX 01 00:31:47
  TRACK 27 AUDIO
    TITLE "4:cjc005_1003"
    INDEX 01 00:31:73
  TRACK 28 AUDIO
    TITLE "0:"
    INDEX 01 00:33:22
  TRACK 29 AUDIO
    TITLE "5:cjc005_1004"
    INDEX 01 00:33:42
  TRACK 30 AUDIO
    TITLE "0:"
    INDEX 01 00:37:52
  TRACK 31 AUDIO
    TITLE "3:cjc005_1005"
    INDEX 01 00:38:31
  TRACK 32 AUDIO
    TITLE "0:"
    INDEX 01 00:39:45
  TRACK 33 AUDIO
    TITLE "4:cjc005_1006"
    INDEX 01 00:39:70
  TRACK 34 AUDIO
    TITLE "0:"
    INDEX 01 00:41:26
  TRACK 35 AUDIO
    TITLE "5:cjc005_1007"
    INDEX 01 00:41:47
  TRACK 36 AUDIO
    TITLE "0:"
    INDEX 01 00:45:47
  TRACK 37 AUDIO
    TITLE "3:cjc005_1008"
    INDEX 01 00:46:23
  TRACK 38 AUDIO
    TITLE "0:"
    INDEX 01 00:47:50
  TRACK 39 AUDIO
    TITLE "4:cjc005_1009"
    INDEX 01 00:47:74
  TRACK 40 AUDIO
    TITLE "0:"
    INDEX 01 00:49:35
  TRACK 41 AUDIO
    TITLE "5:cjc005_1010"
    INDEX 01 00:49:59
  TRACK 42 AUDIO
    TITLE "0:"
    INDEX 01 00:53:37
  TRACK 43 AUDIO
    TITLE "3:cjc005_1011"
    INDEX 01 00:54:11
  TRACK 44 AUDIO
    TITLE "0:"
    INDEX 01 00:55:34
  TRACK 45 AUDIO
    TITLE "4:cjc005_1012"
    INDEX 01 00:55:55
  TRACK 46 AUDIO
    TITLE "0:"
    INDEX 01 00:56:72
  TRACK 47 AUDIO
    TITLE "5:cjc005_1013"
    INDEX 01 00:57:15
  TRACK 48 AUDIO
    TITLE "0:"
    INDEX 01 01:00:53
  TRACK 49 AUDIO
    TITLE "3:cjc005_1014"
    INDEX 01 01:01:27
  TRACK 50 AUDIO
    TITLE "0:"
    INDEX 01 01:02:44
  TRACK 51 AUDIO
    TITLE "4:cjc005_1015"
    INDEX 01 01:02:69
  TRACK 52 AUDIO
    TITLE "0:"
    INDEX 01 01:04:11
  TRACK 53 AUDIO
    TITLE "5:cjc005_1016"
    INDEX 01 01:04:33
  TRACK 54 AUDIO
    TITLE "0:"
    INDEX 01 01:08:50
  TRACK 55 AUDIO
    TITLE "3:cjc005_1017"
    INDEX 01 01:09:22
  TRACK 56 AUDIO
    TITLE "0:"
    INDEX 01 01:10:37
  TRACK 57 AUDIO
    TITLE "4:cjc005_1018"
    INDEX 01 01:10:59
  TRACK 58 AUDIO
    TITLE "0:"
    INDEX 01 01:12:24
  TRACK 59 AUDIO
    TITLE "5:cjc005_1019"
    INDEX 01 01:12:46
  TRACK 60 AUDIO
    TITLE "0:"
    INDEX 01 01:15:66
